<svg width="88" height="32" viewBox="0 0 88 32" fill="none" xmlns="http://www.w3.org/2000/svg">
<path d="M8.00033 4H10.667V6.66667H8.00033V4ZM10.667 25.3333H14.667V28H10.667V25.3333ZM21.3337 4H24.0003V6.66667H21.3337V4ZM17.3337 25.3333H21.3337V28H17.3337V25.3333ZM26.667 14.6667V12H24.0003V9.33333H21.3337V6.66667H18.667V9.33333H13.3337V6.66667H10.667V9.33333H8.00033V12H5.33366V14.6667H2.66699V25.3333H5.33366V20H8.00033V25.3333H10.667V21.3333H21.3337V25.3333H24.0003V20H26.667V25.3333H29.3337V14.6667H26.667ZM13.3337 16H10.667V12H13.3337V16ZM21.3337 16H18.667V12H21.3337V16Z" fill="#FF725E"/>
<path d="M42.9723 23H40.4411L45.0497 9.90909H47.9773L52.5923 23H50.0611L46.5646 12.5938H46.4624L42.9723 23ZM43.0554 17.8672H49.9588V19.772H43.0554V17.8672ZM64.9066 14.326H62.516C62.4478 13.9339 62.3221 13.5866 62.1389 13.2841C61.9556 12.9773 61.7276 12.7173 61.4549 12.5043C61.1822 12.2912 60.8711 12.1314 60.5217 12.0249C60.1765 11.9141 59.8036 11.8587 59.4031 11.8587C58.6914 11.8587 58.0607 12.0376 57.511 12.3956C56.9613 12.7493 56.5309 13.2692 56.2198 13.9553C55.9087 14.6371 55.7532 15.4702 55.7532 16.4545C55.7532 17.456 55.9087 18.2997 56.2198 18.9858C56.5352 19.6676 56.9656 20.1832 57.511 20.5327C58.0607 20.8778 58.6893 21.0504 59.3967 21.0504C59.7887 21.0504 60.1552 20.9993 60.4961 20.897C60.8413 20.7905 61.1502 20.6349 61.4229 20.4304C61.6999 20.2259 61.9322 19.9744 62.1197 19.6761C62.3114 19.3778 62.4435 19.0369 62.516 18.6534L64.9066 18.6662C64.8171 19.2884 64.6232 19.8722 64.3249 20.4176C64.0309 20.9631 63.6452 21.4446 63.168 21.8622C62.6907 22.2756 62.1325 22.5994 61.4933 22.8338C60.854 23.0639 60.1445 23.179 59.3647 23.179C58.2141 23.179 57.1871 22.9126 56.2837 22.38C55.3803 21.8473 54.6687 21.0781 54.1488 20.0724C53.6289 19.0668 53.369 17.8608 53.369 16.4545C53.369 15.044 53.631 13.8381 54.1552 12.8366C54.6793 11.831 55.3931 11.0618 56.2965 10.5291C57.1999 9.99645 58.2227 9.73011 59.3647 9.73011C60.0934 9.73011 60.771 9.83239 61.3974 10.0369C62.0238 10.2415 62.582 10.5419 63.0721 10.9382C63.5621 11.3303 63.9648 11.8118 64.2802 12.3828C64.5998 12.9496 64.8086 13.5973 64.9066 14.326ZM67.0783 23V9.90909H75.5925V11.897H69.4498V15.451H75.1515V17.4389H69.4498V21.0121H75.6436V23H67.0783ZM78.0119 23V9.90909H86.5261V11.897H80.3833V15.451H86.0851V17.4389H80.3833V21.0121H86.5772V23H78.0119Z" fill="black"/>
</svg>
