<svg width="32" height="32" viewBox="0 0 32 32" fill="none" xmlns="http://www.w3.org/2000/svg">
<path d="M8.00033 4H10.667V6.66667H8.00033V4ZM10.667 25.3333H14.667V28H10.667V25.3333ZM21.3337 4H24.0003V6.66667H21.3337V4ZM17.3337 25.3333H21.3337V28H17.3337V25.3333ZM26.667 14.6667V12H24.0003V9.33333H21.3337V6.66667H18.667V9.33333H13.3337V6.66667H10.667V9.33333H8.00033V12H5.33366V14.6667H2.66699V25.3333H5.33366V20H8.00033V25.3333H10.667V21.3333H21.3337V25.3333H24.0003V20H26.667V25.3333H29.3337V14.6667H26.667ZM13.3337 16H10.667V12H13.3337V16ZM21.3337 16H18.667V12H21.3337V16Z" fill="#FF725E"/>
</svg>
