<svg width="24" height="24" viewBox="0 0 24 24" fill="none" xmlns="http://www.w3.org/2000/svg">
<path d="M17.54 8.81014C17.9287 8.81014 18.3136 8.73357 18.6727 8.58482C19.0319 8.43607 19.3582 8.21803 19.633 7.94317C19.9079 7.66831 20.1259 7.342 20.2747 6.98288C20.4234 6.62376 20.5 6.23885 20.5 5.85014C20.5 5.46142 20.4234 5.07652 20.2747 4.71739C20.1259 4.35827 19.9079 4.03196 19.633 3.7571C19.3582 3.48224 19.0319 3.26421 18.6727 3.11545C18.3136 2.9667 17.9287 2.89014 17.54 2.89014C16.755 2.89014 16.0021 3.20199 15.447 3.7571C14.8919 4.31221 14.58 5.0651 14.58 5.85014C14.58 6.63518 14.8919 7.38806 15.447 7.94317C16.0021 8.49828 16.755 8.81014 17.54 8.81014ZM6.46 8.81014C6.84871 8.81014 7.23362 8.73357 7.59274 8.58482C7.95187 8.43607 8.27817 8.21803 8.55304 7.94317C8.8279 7.66831 9.04593 7.342 9.19468 6.98288C9.34344 6.62376 9.42 6.23885 9.42 5.85014C9.42 5.46142 9.34344 5.07652 9.19468 4.71739C9.04593 4.35827 8.8279 4.03196 8.55304 3.7571C8.27817 3.48224 7.95187 3.26421 7.59274 3.11545C7.23362 2.9667 6.84871 2.89014 6.46 2.89014C5.67496 2.89014 4.92207 3.20199 4.36696 3.7571C3.81186 4.31221 3.5 5.0651 3.5 5.85014C3.5 6.63518 3.81186 7.38806 4.36696 7.94317C4.92207 8.49828 5.67496 8.81014 6.46 8.81014ZM17.54 21.1111C18.325 21.1111 19.0779 20.7993 19.633 20.2442C20.1881 19.6891 20.5 18.9362 20.5 18.1511C20.5 17.3661 20.1881 16.6132 19.633 16.0581C19.0779 15.503 18.325 15.1911 17.54 15.1911C16.755 15.1911 16.0021 15.503 15.447 16.0581C14.8919 16.6132 14.58 17.3661 14.58 18.1511C14.58 18.9362 14.8919 19.6891 15.447 20.2442C16.0021 20.7993 16.755 21.1111 17.54 21.1111ZM6.46 21.1111C7.24504 21.1111 7.99793 20.7993 8.55304 20.2442C9.10814 19.6891 9.42 18.9362 9.42 18.1511C9.42 17.3661 9.10814 16.6132 8.55304 16.0581C7.99793 15.503 7.24504 15.1911 6.46 15.1911C5.67496 15.1911 4.92207 15.503 4.36696 16.0581C3.81186 16.6132 3.5 17.3661 3.5 18.1511C3.5 18.9362 3.81186 19.6891 4.36696 20.2442C4.92207 20.7993 5.67496 21.1111 6.46 21.1111Z" fill="black"/>
</svg>
